<mxfile host="app.diagrams.net" modified="2021-10-26T05:54:57.149Z" agent="5.0 (Windows NT 10.0; Win64; x64) AppleWebKit/537.36 (KHTML, like Gecko) Chrome/95.0.4638.54 Safari/537.36" etag="gOU6_eWA-g61oDUAG8nL" version="15.5.9" type="github">
  <diagram id="l9KXOIgf_vP0DUk4oR0p" name="Page-1">
    <mxGraphModel dx="782" dy="428" grid="1" gridSize="10" guides="1" tooltips="1" connect="1" arrows="1" fold="1" page="1" pageScale="1" pageWidth="827" pageHeight="1169" math="0" shadow="0">
      <root>
        <mxCell id="0" />
        <mxCell id="1" parent="0" />
        <mxCell id="EsqZjy3vZ6IBk1YLYs3b-2" value="" style="rounded=0;whiteSpace=wrap;html=1;fillColor=#ffe6cc;strokeColor=#d79b00;" parent="1" vertex="1">
          <mxGeometry x="10" y="10" width="780" height="530" as="geometry" />
        </mxCell>
        <mxCell id="EsqZjy3vZ6IBk1YLYs3b-3" value="&lt;font style=&quot;font-size: 40px&quot;&gt;To-Do List&lt;/font&gt;" style="rounded=1;whiteSpace=wrap;html=1;fillColor=#e1d5e7;strokeColor=#9673a6;" parent="1" vertex="1">
          <mxGeometry x="240" y="80" width="320" height="60" as="geometry" />
        </mxCell>
        <mxCell id="EsqZjy3vZ6IBk1YLYs3b-6" value="" style="edgeStyle=orthogonalEdgeStyle;rounded=0;orthogonalLoop=1;jettySize=auto;html=1;fontSize=40;" parent="1" source="EsqZjy3vZ6IBk1YLYs3b-4" target="EsqZjy3vZ6IBk1YLYs3b-5" edge="1">
          <mxGeometry relative="1" as="geometry" />
        </mxCell>
        <mxCell id="EsqZjy3vZ6IBk1YLYs3b-4" value="tasks" style="rounded=0;whiteSpace=wrap;html=1;fontSize=40;fillColor=#f5f5f5;fontColor=#333333;strokeColor=#666666;" parent="1" vertex="1">
          <mxGeometry x="230" y="290" width="360" height="60" as="geometry" />
        </mxCell>
        <mxCell id="EsqZjy3vZ6IBk1YLYs3b-8" value="" style="edgeStyle=orthogonalEdgeStyle;rounded=0;orthogonalLoop=1;jettySize=auto;html=1;fontSize=40;" parent="1" source="EsqZjy3vZ6IBk1YLYs3b-5" target="EsqZjy3vZ6IBk1YLYs3b-7" edge="1">
          <mxGeometry relative="1" as="geometry" />
        </mxCell>
        <mxCell id="EsqZjy3vZ6IBk1YLYs3b-5" value="tasks" style="rounded=0;whiteSpace=wrap;html=1;fontSize=40;fillColor=#f5f5f5;fontColor=#333333;strokeColor=#666666;" parent="1" vertex="1">
          <mxGeometry x="230" y="370" width="360" height="60" as="geometry" />
        </mxCell>
        <mxCell id="EsqZjy3vZ6IBk1YLYs3b-7" value="tasks" style="rounded=0;whiteSpace=wrap;html=1;fontSize=40;fillColor=#f5f5f5;fontColor=#333333;strokeColor=#666666;" parent="1" vertex="1">
          <mxGeometry x="230" y="450" width="360" height="60" as="geometry" />
        </mxCell>
        <mxCell id="2KxDnKesrNdDXD3upObD-3" value="" style="edgeStyle=orthogonalEdgeStyle;rounded=0;orthogonalLoop=1;jettySize=auto;html=1;fontSize=20;entryX=0.5;entryY=0;entryDx=0;entryDy=0;" edge="1" parent="1" source="EsqZjy3vZ6IBk1YLYs3b-10" target="EsqZjy3vZ6IBk1YLYs3b-4">
          <mxGeometry relative="1" as="geometry" />
        </mxCell>
        <mxCell id="EsqZjy3vZ6IBk1YLYs3b-10" value="Entering tasks:" style="rounded=1;whiteSpace=wrap;html=1;fontSize=40;fillColor=#f5f5f5;strokeColor=#666666;fontColor=#333333;" parent="1" vertex="1">
          <mxGeometry x="230" y="200" width="360" height="60" as="geometry" />
        </mxCell>
        <mxCell id="EsqZjy3vZ6IBk1YLYs3b-13" style="edgeStyle=orthogonalEdgeStyle;rounded=0;orthogonalLoop=1;jettySize=auto;html=1;entryX=0;entryY=0.75;entryDx=0;entryDy=0;fontSize=40;" parent="1" source="EsqZjy3vZ6IBk1YLYs3b-12" target="EsqZjy3vZ6IBk1YLYs3b-10" edge="1">
          <mxGeometry relative="1" as="geometry" />
        </mxCell>
        <mxCell id="EsqZjy3vZ6IBk1YLYs3b-12" value="&lt;font style=&quot;font-size: 20px&quot;&gt;ability to remove and edit the entered tasks&lt;/font&gt;" style="text;html=1;strokeColor=#6c8ebf;fillColor=#dae8fc;align=left;verticalAlign=middle;whiteSpace=wrap;rounded=0;fontSize=40;" parent="1" vertex="1">
          <mxGeometry x="20" y="190" width="160" height="160" as="geometry" />
        </mxCell>
        <mxCell id="2KxDnKesrNdDXD3upObD-4" style="edgeStyle=orthogonalEdgeStyle;rounded=0;orthogonalLoop=1;jettySize=auto;html=1;entryX=1;entryY=0.75;entryDx=0;entryDy=0;fontSize=20;" edge="1" parent="1" source="EsqZjy3vZ6IBk1YLYs3b-14" target="EsqZjy3vZ6IBk1YLYs3b-4">
          <mxGeometry relative="1" as="geometry">
            <Array as="points">
              <mxPoint x="610" y="335" />
            </Array>
          </mxGeometry>
        </mxCell>
        <mxCell id="2KxDnKesrNdDXD3upObD-6" style="edgeStyle=orthogonalEdgeStyle;rounded=0;orthogonalLoop=1;jettySize=auto;html=1;exitX=0.75;exitY=1;exitDx=0;exitDy=0;entryX=1;entryY=0.75;entryDx=0;entryDy=0;fontSize=20;" edge="1" parent="1" source="EsqZjy3vZ6IBk1YLYs3b-14" target="EsqZjy3vZ6IBk1YLYs3b-7">
          <mxGeometry relative="1" as="geometry" />
        </mxCell>
        <mxCell id="EsqZjy3vZ6IBk1YLYs3b-14" value="ability to store the tasks in local storage" style="text;html=1;strokeColor=#6c8ebf;fillColor=#dae8fc;align=center;verticalAlign=middle;whiteSpace=wrap;rounded=0;fontSize=20;" parent="1" vertex="1">
          <mxGeometry x="610" y="90" width="140" height="90" as="geometry" />
        </mxCell>
        <mxCell id="2KxDnKesrNdDXD3upObD-5" style="edgeStyle=orthogonalEdgeStyle;rounded=0;orthogonalLoop=1;jettySize=auto;html=1;fontSize=20;entryX=1.002;entryY=0.622;entryDx=0;entryDy=0;entryPerimeter=0;" edge="1" parent="1" target="EsqZjy3vZ6IBk1YLYs3b-5">
          <mxGeometry relative="1" as="geometry">
            <mxPoint x="670" y="180" as="sourcePoint" />
            <mxPoint x="630" y="410" as="targetPoint" />
            <Array as="points">
              <mxPoint x="670" y="180" />
              <mxPoint x="670" y="407" />
            </Array>
          </mxGeometry>
        </mxCell>
      </root>
    </mxGraphModel>
  </diagram>
</mxfile>
